<svg width="200" height="200" xmlns="http://www.w3.org/2000/svg" xmlns:svg="http://www.w3.org/2000/svg" preserveAspectRatio="xMidYMid meet">
<g>
<circle id="circle" r="100" cy="100" cx="100" stroke-linecap="null" stroke-linejoin="null" stroke-dasharray="null" stroke-width="null" fill="black"/>
<path fill="#007fff" id="sz" d="m113.040945,25.615439c-22.495741,12.944259 -27.712144,26.196715 -33.906624,85.062275c-4.564353,42.531138 -7.824606,49.311464 -22.821766,49.619661c-8.150631,0 -11.736908,1.540983 -12.388959,5.239343c-1.630126,7.704916 14.019085,6.780326 25.755993,-1.232787c14.671135,-9.862293 18.583438,-20.032782 22.495741,-61.63933c5.542429,-58.557364 11.736908,-73.658999 29.342271,-73.658999c19.561514,0 18.583438,15.409833 -1.956151,39.140975c-12.388959,14.177046 -12.714984,20.649176 -1.304101,30.203272c7.172555,6.163933 8.802681,19.724586 2.608202,20.340979c-2.282177,0.308197 -7.824606,0.616393 -12.388959,0.92459c-4.890378,0.308197 -8.150631,2.157377 -8.150631,4.931146c0,7.39672 9.128706,7.088523 21.19164,-0.616393c13.367034,-8.937703 17.279337,-17.567209 11.410883,-27.429502c-13.041009,-21.573766 -13.367034,-19.724586 1.304101,-36.983598c14.671135,-17.259012 16.627287,-26.813109 7.49858,-34.518025c-7.824606,-6.780326 -16.301261,-6.47213 -28.69022,0.616393z"/>
</g>
</svg>
